<svg width="1000" height="600" viewBox="0 0 1000 600" xmlns="http://www.w3.org/2000/svg">
  <defs>
    <linearGradient id="headerGrad" x1="0%" y1="0%" x2="100%" y2="0%">
      <stop offset="0%" style="stop-color:#00d9a3;stop-opacity:1" />
      <stop offset="100%" style="stop-color:#0ea5e9;stop-opacity:1" />
    </linearGradient>
    
    <filter id="tableShadow">
      <feGaussianBlur in="SourceAlpha" stdDeviation="4"/>
      <feOffset dx="0" dy="4" result="offsetblur"/>
      <feComponentTransfer>
        <feFuncA type="linear" slope="0.2"/>
      </feComponentTransfer>
      <feMerge>
        <feMergeNode/>
        <feMergeNode in="SourceGraphic"/>
      </feMerge>
    </filter>
  </defs>
  
  <!-- Background -->
  <rect width="1000" height="600" fill="#f8fafc"/>
  
  <!-- Title -->
  <text x="500" y="40" font-family="Arial, sans-serif" font-size="32" font-weight="bold" fill="#0f172a" text-anchor="middle">
    Why Choose PynKart ZPL Studio?
  </text>
  
  <!-- Table Container -->
  <rect x="50" y="80" width="900" height="480" rx="15" fill="#ffffff" filter="url(#tableShadow)"/>
  
  <!-- Table Header -->
  <rect x="50" y="80" width="900" height="60" rx="15" fill="url(#headerGrad)"/>
  <rect x="50" y="120" width="900" height="20" fill="url(#headerGrad)"/>
  
  <!-- Column Headers -->
  <text x="275" y="118" font-family="Arial, sans-serif" font-size="18" font-weight="bold" fill="#ffffff" text-anchor="middle">
    Feature
  </text>
  <text x="500" y="118" font-family="Arial, sans-serif" font-size="18" font-weight="bold" fill="#ffffff" text-anchor="middle">
    PynKart ZPL Studio
  </text>
  <text x="680" y="118" font-family="Arial, sans-serif" font-size="18" font-weight="bold" fill="#ffffff" text-anchor="middle">
    Cloud Solutions
  </text>
  <text x="850" y="118" font-family="Arial, sans-serif" font-size="18" font-weight="bold" fill="#ffffff" text-anchor="middle">
    Manual Printing
  </text>
  
  <!-- Vertical Lines -->
  <line x1="450" y1="140" x2="450" y2="560" stroke="#e2e8f0" stroke-width="2"/>
  <line x1="590" y1="140" x2="590" y2="560" stroke="#e2e8f0" stroke-width="2"/>
  <line x1="770" y1="140" x2="770" y2="560" stroke="#e2e8f0" stroke-width="2"/>
  
  <!-- Row 1: Data Privacy -->
  <rect x="50" y="140" width="900" height="60" fill="#ffffff"/>
  <line x1="50" y1="200" x2="950" y2="200" stroke="#e2e8f0" stroke-width="1"/>
  
  <text x="70" y="175" font-family="Arial, sans-serif" font-size="15" font-weight="bold" fill="#0f172a">
    🔒 Data Privacy
  </text>
  
  <circle cx="520" cy="170" r="16" fill="#10b981"/>
  <text x="520" y="177" font-family="Arial, sans-serif" font-size="20" font-weight="bold" fill="#ffffff" text-anchor="middle">✓</text>
  
  <circle cx="680" cy="170" r="16" fill="#ef4444"/>
  <text x="680" y="177" font-family="Arial, sans-serif" font-size="20" font-weight="bold" fill="#ffffff" text-anchor="middle">✗</text>
  
  <circle cx="850" cy="170" r="16" fill="#10b981"/>
  <text x="850" y="177" font-family="Arial, sans-serif" font-size="20" font-weight="bold" fill="#ffffff" text-anchor="middle">✓</text>
  
  <!-- Row 2: Internet Required -->
  <rect x="50" y="200" width="900" height="60" fill="#f8fafc"/>
  <line x1="50" y1="260" x2="950" y2="260" stroke="#e2e8f0" stroke-width="1"/>
  
  <text x="70" y="235" font-family="Arial, sans-serif" font-size="15" font-weight="bold" fill="#0f172a">
    🌐 Internet Required
  </text>
  
  <circle cx="520" cy="230" r="16" fill="#f59e0b"/>
  <text x="520" y="237" font-family="Arial, sans-serif" font-size="18" font-weight="bold" fill="#ffffff" text-anchor="middle">⚠</text>
  
  <circle cx="680" cy="230" r="16" fill="#ef4444"/>
  <text x="680" y="237" font-family="Arial, sans-serif" font-size="20" font-weight="bold" fill="#ffffff" text-anchor="middle">✗</text>
  
  <circle cx="850" cy="230" r="16" fill="#10b981"/>
  <text x="850" y="237" font-family="Arial, sans-serif" font-size="20" font-weight="bold" fill="#ffffff" text-anchor="middle">✓</text>
  
  <!-- Row 3: Batch Printing -->
  <rect x="50" y="260" width="900" height="60" fill="#ffffff"/>
  <line x1="50" y1="320" x2="950" y2="320" stroke="#e2e8f0" stroke-width="1"/>
  
  <text x="70" y="295" font-family="Arial, sans-serif" font-size="15" font-weight="bold" fill="#0f172a">
    ⚡ Batch Printing
  </text>
  
  <circle cx="520" cy="290" r="16" fill="#10b981"/>
  <text x="520" y="297" font-family="Arial, sans-serif" font-size="20" font-weight="bold" fill="#ffffff" text-anchor="middle">✓</text>
  
  <circle cx="680" cy="290" r="16" fill="#f59e0b"/>
  <text x="680" y="297" font-family="Arial, sans-serif" font-size="18" font-weight="bold" fill="#ffffff" text-anchor="middle">⚠</text>
  
  <circle cx="850" cy="290" r="16" fill="#ef4444"/>
  <text x="850" y="297" font-family="Arial, sans-serif" font-size="20" font-weight="bold" fill="#ffffff" text-anchor="middle">✗</text>
  
  <!-- Row 4: Odoo Integration -->
  <rect x="50" y="320" width="900" height="60" fill="#f8fafc"/>
  <line x1="50" y1="380" x2="950" y2="380" stroke="#e2e8f0" stroke-width="1"/>
  
  <text x="70" y="355" font-family="Arial, sans-serif" font-size="15" font-weight="bold" fill="#0f172a">
    🔗 Odoo Integration
  </text>
  
  <circle cx="520" cy="350" r="16" fill="#10b981"/>
  <text x="520" y="357" font-family="Arial, sans-serif" font-size="20" font-weight="bold" fill="#ffffff" text-anchor="middle">✓</text>
  
  <circle cx="680" cy="350" r="16" fill="#f59e0b"/>
  <text x="680" y="357" font-family="Arial, sans-serif" font-size="18" font-weight="bold" fill="#ffffff" text-anchor="middle">⚠</text>
  
  <circle cx="850" cy="350" r="16" fill="#ef4444"/>
  <text x="850" y="357" font-family="Arial, sans-serif" font-size="20" font-weight="bold" fill="#ffffff" text-anchor="middle">✗</text>
  
  <!-- Row 5: Setup Time -->
  <rect x="50" y="380" width="900" height="60" fill="#ffffff"/>
  <line x1="50" y1="440" x2="950" y2="440" stroke="#e2e8f0" stroke-width="1"/>
  
  <text x="70" y="415" font-family="Arial, sans-serif" font-size="15" font-weight="bold" fill="#0f172a">
    ⏱️ Setup Time
  </text>
  
  <circle cx="520" cy="410" r="16" fill="#10b981"/>
  <text x="520" y="417" font-family="Arial, sans-serif" font-size="20" font-weight="bold" fill="#ffffff" text-anchor="middle">✓</text>
  
  <circle cx="680" cy="410" r="16" fill="#f59e0b"/>
  <text x="680" y="417" font-family="Arial, sans-serif" font-size="18" font-weight="bold" fill="#ffffff" text-anchor="middle">⚠</text>
  
  <circle cx="850" cy="410" r="16" fill="#10b981"/>
  <text x="850" y="417" font-family="Arial, sans-serif" font-size="20" font-weight="bold" fill="#ffffff" text-anchor="middle">✓</text>
  
  <!-- Row 6: Performance -->
  <rect x="50" y="440" width="900" height="60" fill="#f8fafc"/>
  <line x1="50" y1="500" x2="950" y2="500" stroke="#e2e8f0" stroke-width="1"/>
  
  <text x="70" y="475" font-family="Arial, sans-serif" font-size="15" font-weight="bold" fill="#0f172a">
    🚀 Performance
  </text>
  
  <circle cx="520" cy="470" r="16" fill="#10b981"/>
  <text x="520" y="477" font-family="Arial, sans-serif" font-size="20" font-weight="bold" fill="#ffffff" text-anchor="middle">✓</text>
  
  <circle cx="680" cy="470" r="16" fill="#ef4444"/>
  <text x="680" y="477" font-family="Arial, sans-serif" font-size="20" font-weight="bold" fill="#ffffff" text-anchor="middle">✗</text>
  
  <circle cx="850" cy="470" r="16" fill="#10b981"/>
  <text x="850" y="477" font-family="Arial, sans-serif" font-size="20" font-weight="bold" fill="#ffffff" text-anchor="middle">✓</text>
  
  <!-- Row 7: Cost -->
  <rect x="50" y="500" width="900" height="60" fill="#ffffff"/>
  
  <text x="70" y="535" font-family="Arial, sans-serif" font-size="15" font-weight="bold" fill="#0f172a">
    💰 Cost
  </text>
  
  <circle cx="520" cy="530" r="16" fill="#10b981"/>
  <text x="520" y="537" font-family="Arial, sans-serif" font-size="20" font-weight="bold" fill="#ffffff" text-anchor="middle">✓</text>
  
  <circle cx="680" cy="530" r="16" fill="#ef4444"/>
  <text x="680" y="537" font-family="Arial, sans-serif" font-size="20" font-weight="bold" fill="#ffffff" text-anchor="middle">✗</text>
  
  <circle cx="850" cy="530" r="16" fill="#10b981"/>
  <text x="850" y="537" font-family="Arial, sans-serif" font-size="20" font-weight="bold" fill="#ffffff" text-anchor="middle">✓</text>
</svg>
