<svg width="800" height="400" viewBox="0 0 800 400" xmlns="http://www.w3.org/2000/svg">
  <defs>
    <linearGradient id="bg" x1="0%" y1="0%" x2="100%" y2="100%">
      <stop offset="0%"   style="stop-color:#00d9a3;stop-opacity:1"/>
      <stop offset="50%"  style="stop-color:#0ea5e9;stop-opacity:1"/>
      <stop offset="100%" style="stop-color:#a855f7;stop-opacity:1"/>
    </linearGradient>
    <linearGradient id="card" x1="0%" y1="0%" x2="0%" y2="100%">
      <stop offset="0%"   style="stop-color:#ffffff;stop-opacity:0.97"/>
      <stop offset="100%" style="stop-color:#f1f5f9;stop-opacity:0.93"/>
    </linearGradient>
    <filter id="shadow" x="-5%" y="-5%" width="115%" height="120%">
      <feGaussianBlur in="SourceAlpha" stdDeviation="4"/>
      <feOffset dx="0" dy="4" result="blur"/>
      <feComponentTransfer><feFuncA type="linear" slope="0.25"/></feComponentTransfer>
      <feMerge><feMergeNode/><feMergeNode in="SourceGraphic"/></feMerge>
    </filter>
  </defs>

  <!-- Background -->
  <rect width="800" height="400" fill="url(#bg)"/>

  <!-- Decorative circles -->
  <circle cx="720" cy="50"  r="70" fill="#ffffff" opacity="0.08"/>
  <circle cx="700" cy="370" r="45" fill="#ffffff" opacity="0.10"/>
  <circle cx="30"  cy="360" r="50" fill="#ffffff" opacity="0.06"/>

  <!-- White card - left half -->
  <rect x="20" y="30" width="460" height="340" rx="16" fill="url(#card)" filter="url(#shadow)"/>

  <!-- App icon -->
  <g transform="translate(44, 56)">
    <rect x="0" y="0" width="50" height="36" rx="4" fill="#00d9a3"/>
    <rect x="5" y="7"  width="40" height="5" rx="2" fill="#ffffff"/>
    <rect x="5" y="16" width="32" height="5" rx="2" fill="#ffffff"/>
    <rect x="5" y="25" width="24" height="5" rx="2" fill="#ffffff" opacity="0.7"/>
    <rect x="7"  y="46" width="2"  height="16" fill="#0f172a"/>
    <rect x="11" y="46" width="3"  height="16" fill="#0f172a"/>
    <rect x="16" y="46" width="2"  height="16" fill="#0f172a"/>
    <rect x="20" y="46" width="4"  height="16" fill="#0f172a"/>
    <rect x="26" y="46" width="2"  height="16" fill="#0f172a"/>
    <rect x="30" y="46" width="3"  height="16" fill="#0f172a"/>
    <rect x="35" y="46" width="4"  height="16" fill="#0f172a"/>
    <rect x="41" y="46" width="3"  height="16" fill="#0f172a"/>
  </g>

  <!-- Title -->
  <text x="108" y="95" font-family="Arial, sans-serif" font-size="30" font-weight="bold" fill="#0f172a">PynKart Label Studio</text>

  <!-- Subtitle -->
  <text x="44" y="124" font-family="Arial, sans-serif" font-size="15" fill="#475569">Professional Label Design &amp; Automation for Odoo</text>

  <!-- Pills -->
  <rect x="44"  y="138" width="124" height="28" rx="14" fill="#00d9a3"/>
  <text x="106" y="157" font-family="Arial, sans-serif" font-size="12" font-weight="bold" fill="#ffffff" text-anchor="middle">100% Private</text>

  <rect x="178" y="138" width="110" height="28" rx="14" fill="#0ea5e9"/>
  <text x="233" y="157" font-family="Arial, sans-serif" font-size="12" font-weight="bold" fill="#ffffff" text-anchor="middle">10K+ Labels</text>

  <rect x="298" y="138" width="122" height="28" rx="14" fill="#a855f7"/>
  <text x="359" y="157" font-family="Arial, sans-serif" font-size="12" font-weight="bold" fill="#ffffff" text-anchor="middle">29 Languages</text>

  <!-- Feature ticks line 1 -->
  <text x="44" y="196" font-family="Arial, sans-serif" font-size="13" fill="#0f172a">Windows Desktop  |  Odoo Integration  |  Batch Printing</text>

  <!-- Feature ticks line 2 -->
  <text x="44" y="218" font-family="Arial, sans-serif" font-size="13" fill="#475569">RFID Support  |  8 Data Sources  |  Print Automations</text>

  <!-- Compatibility -->
  <text x="44" y="242" font-family="Arial, sans-serif" font-size="12" fill="#64748b">Odoo 14-19  |  Online, Odoo.sh, On-Premise  |  FREE Addon</text>

  <!-- Divider -->
  <line x1="44" y1="260" x2="456" y2="260" stroke="#e2e8f0" stroke-width="1"/>

  <!-- Key props row -->
  <text x="44"  y="284" font-family="Arial, sans-serif" font-size="12" font-weight="bold" fill="#00d9a3">Visual ZPL Designer</text>
  <text x="196" y="284" font-family="Arial, sans-serif" font-size="12" font-weight="bold" fill="#0ea5e9">RFID Encoding</text>
  <text x="314" y="284" font-family="Arial, sans-serif" font-size="12" font-weight="bold" fill="#a855f7">Multi-User Roles</text>

  <!-- Download badge -->
  <rect x="44"  y="300" width="150" height="46" rx="8" fill="#0f172a" opacity="0.85"/>
  <text x="119" y="320" font-family="Arial, sans-serif" font-size="11" font-weight="bold" fill="#00d9a3" text-anchor="middle">FREE DOWNLOAD</text>
  <text x="119" y="338" font-family="Arial, sans-serif" font-size="10" fill="#94a3b8" text-anchor="middle">pynkart.com</text>

  <!-- Right panel: screen mockup -->
  <g transform="translate(510, 50)">
    <rect x="0"  y="0"   width="260" height="200" rx="10" fill="#1e293b" filter="url(#shadow)"/>
    <rect x="10" y="10"  width="240" height="170" rx="5"  fill="#ffffff"/>
    <!-- browser chrome -->
    <rect x="10" y="10"  width="240" height="24"  rx="5"  fill="#e2e8f0"/>
    <circle cx="22"  cy="22" r="4" fill="#ef4444"/>
    <circle cx="33"  cy="22" r="4" fill="#f59e0b"/>
    <circle cx="44"  cy="22" r="4" fill="#10b981"/>
    <!-- ZPL code editor -->
    <rect x="18" y="40" width="110" height="132" fill="#0f172a"/>
    <rect x="24" y="48"  width="72"  height="4" rx="2" fill="#00d9a3"/>
    <rect x="24" y="58"  width="58"  height="4" rx="2" fill="#0ea5e9"/>
    <rect x="24" y="68"  width="88"  height="4" rx="2" fill="#a855f7"/>
    <rect x="24" y="78"  width="64"  height="4" rx="2" fill="#00d9a3"/>
    <rect x="24" y="88"  width="80"  height="4" rx="2" fill="#0ea5e9"/>
    <rect x="24" y="100" width="50"  height="4" rx="2" fill="#475569" opacity="0.5"/>
    <rect x="24" y="110" width="74"  height="4" rx="2" fill="#00d9a3"/>
    <rect x="24" y="120" width="62"  height="4" rx="2" fill="#0ea5e9"/>
    <rect x="24" y="130" width="70"  height="4" rx="2" fill="#a855f7"/>
    <rect x="24" y="140" width="54"  height="4" rx="2" fill="#00d9a3"/>
    <rect x="24" y="150" width="78"  height="4" rx="2" fill="#0ea5e9"/>
    <rect x="24" y="160" width="44"  height="4" rx="2" fill="#475569" opacity="0.5"/>
    <!-- label preview -->
    <rect x="138" y="40" width="112" height="132" rx="3" fill="#f8fafc" stroke="#e2e8f0" stroke-width="1.5"/>
    <text x="194" y="58" font-family="monospace" font-size="8" fill="#0f172a" text-anchor="middle" font-weight="bold">PRODUCT LABEL</text>
    <g transform="translate(148, 66)">
      <rect x="0"  y="0" width="2"  height="24" fill="#0f172a"/>
      <rect x="4"  y="0" width="3"  height="24" fill="#0f172a"/>
      <rect x="9"  y="0" width="2"  height="24" fill="#0f172a"/>
      <rect x="13" y="0" width="4"  height="24" fill="#0f172a"/>
      <rect x="19" y="0" width="2"  height="24" fill="#0f172a"/>
      <rect x="23" y="0" width="3"  height="24" fill="#0f172a"/>
      <rect x="28" y="0" width="4"  height="24" fill="#0f172a"/>
      <rect x="34" y="0" width="2"  height="24" fill="#0f172a"/>
      <rect x="38" y="0" width="3"  height="24" fill="#0f172a"/>
      <rect x="43" y="0" width="5"  height="24" fill="#0f172a"/>
      <rect x="50" y="0" width="2"  height="24" fill="#0f172a"/>
      <rect x="54" y="0" width="3"  height="24" fill="#0f172a"/>
      <rect x="59" y="0" width="4"  height="24" fill="#0f172a"/>
      <rect x="65" y="0" width="2"  height="24" fill="#0f172a"/>
      <rect x="69" y="0" width="5"  height="24" fill="#0f172a"/>
      <rect x="76" y="0" width="2"  height="24" fill="#0f172a"/>
      <rect x="80" y="0" width="3"  height="24" fill="#0f172a"/>
    </g>
    <text x="194" y="104" font-family="monospace" font-size="8" fill="#475569" text-anchor="middle">SKU: ABC-12345</text>
    <text x="194" y="116" font-family="monospace" font-size="8" fill="#475569" text-anchor="middle">Price: $29.99</text>
    <text x="194" y="128" font-family="monospace" font-size="8" fill="#475569" text-anchor="middle">Weight: 1.5 kg</text>
    <rect x="152" y="136" width="24" height="24" rx="2" fill="#0f172a" opacity="0.12"/>
    <rect x="155" y="139" width="6"  height="6"  fill="#0f172a"/>
    <rect x="164" y="139" width="6"  height="6"  fill="#0f172a"/>
    <rect x="159" y="146" width="4"  height="4"  fill="#0f172a"/>
    <rect x="155" y="152" width="6"  height="6"  fill="#0f172a"/>
    <!-- stand -->
    <rect x="110" y="202" width="40" height="12" rx="2" fill="#475569"/>
    <rect x="88"  y="214" width="84" height="4"  rx="2" fill="#64748b"/>
  </g>

  <!-- Right: stats below mockup -->
  <text x="510" y="290" font-family="Arial, sans-serif" font-size="16" font-weight="bold" fill="#ffffff">FREE to Download</text>
  <text x="510" y="312" font-family="Arial, sans-serif" font-size="12" fill="#e2e8f0">No fees - no restrictions</text>
  <text x="510" y="332" font-family="Arial, sans-serif" font-size="12" fill="#e2e8f0">Unlimited printing - no per-label fees</text>
  <text x="510" y="352" font-family="Arial, sans-serif" font-size="12" fill="#e2e8f0">Windows 10+ - .NET 8.0 included</text>
  <text x="510" y="378" font-family="Arial, sans-serif" font-size="11" fill="#ffffff" opacity="0.7">OPL-1 License</text>
</svg>
